<?xml version="1.0" standalone="no"?>
<!DOCTYPE svg PUBLIC "-//W3C//DTD SVG 20010904//EN"
 "http://www.w3.org/TR/2001/REC-SVG-20010904/DTD/svg10.dtd">
<svg version="1.0" xmlns="http://www.w3.org/2000/svg"
 width="600.000000pt" height="800.000000pt" viewBox="0 0 600.000000 800.000000"
 preserveAspectRatio="xMidYMid meet">

<g transform="translate(0.000000,800.000000) scale(0.100000,-0.100000)"
fill="#000000" stroke="none">
<path d="M0 4000 l0 -4000 3000 0 3000 0 0 4000 0 4000 -3000 0 -3000 0 0
-4000z m2603 1367 c72 -55 85 -127 43 -241 -50 -139 -155 -256 -228 -256 -23
0 -28 4 -28 23 0 17 10 28 40 41 84 37 180 194 180 296 0 47 -4 60 -24 80 -31
28 -92 40 -154 29 -150 -28 -351 -198 -446 -378 -105 -199 -113 -364 -22 -408
34 -16 41 -15 188 15 169 36 213 39 261 18 45 -19 66 -46 80 -102 8 -32 18
-50 29 -52 18 -4 236 108 262 133 15 16 86 219 86 247 0 27 -16 30 -109 19
-93 -12 -121 -8 -121 15 0 20 29 29 140 44 52 7 105 16 117 21 13 5 39 41 68
98 54 104 80 141 101 141 33 0 28 -27 -30 -161 -12 -29 -13 -40 -3 -53 11 -15
25 -15 195 0 101 8 190 13 198 10 8 -3 14 -14 14 -25 0 -23 -2 -24 -268 -50
-129 -13 -188 -22 -198 -33 -21 -21 -68 -141 -119 -304 -49 -158 -74 -270 -77
-354 -3 -53 -2 -55 22 -55 21 0 42 24 128 145 144 204 200 278 253 333 47 48
47 48 110 46 58 -2 64 0 87 27 66 79 83 95 94 92 24 -8 19 -49 -16 -131 -19
-45 -42 -106 -52 -135 -15 -48 -15 -55 -2 -69 23 -22 46 -11 128 62 49 42 84
83 104 122 30 56 57 76 77 56 6 -6 0 -31 -15 -64 -33 -72 -45 -156 -23 -165
27 -10 81 32 158 123 126 148 141 163 159 163 30 0 31 -27 11 -190 -17 -134
-18 -157 -5 -170 16 -17 8 -24 114 100 79 92 104 115 120 105 21 -13 7 -37
-96 -167 -163 -207 -179 -233 -204 -345 -39 -170 -77 -243 -127 -243 -17 0
-28 10 -39 34 -16 31 -15 37 5 98 12 35 40 95 62 133 61 103 65 118 83 265 9
74 18 148 21 163 9 53 -22 44 -92 -27 -136 -136 -221 -162 -248 -76 -9 28 -31
25 -74 -9 -49 -39 -115 -71 -145 -71 -31 0 -56 34 -56 78 0 56 -25 52 -93 -16
-70 -68 -107 -88 -138 -71 -27 14 -32 8 -135 -122 -115 -147 -158 -179 -200
-151 -37 24 -45 142 -19 279 19 96 19 109 1 116 -18 7 -221 -96 -258 -131 -15
-13 -44 -53 -64 -88 -100 -171 -253 -292 -322 -255 -10 5 -25 25 -32 42 -12
29 -11 36 10 76 31 58 111 129 233 206 105 67 127 95 127 164 0 45 -20 70 -66
78 -16 4 -97 -8 -184 -25 -138 -28 -161 -31 -207 -20 -212 47 -154 411 111
697 75 80 173 152 261 188 50 21 73 25 141 23 71 -3 85 -6 117 -31z m-465
-1659 l3 -57 -73 -3 -73 -3 -3 -437 -2 -438 -65 0 -65 0 0 440 0 440 -70 0
-70 0 0 60 0 60 208 -2 207 -3 3 -57z m222 -345 c0 -255 4 -422 11 -446 9 -35
31 -49 74 -49 43 0 65 14 74 49 7 24 11 192 11 446 l0 408 63 -3 62 -3 0 -440
c0 -494 0 -491 -74 -537 -31 -20 -49 -23 -136 -23 -118 0 -155 16 -189 80 -20
39 -21 56 -24 469 -2 236 -1 435 2 442 4 10 24 14 66 14 l60 0 0 -407z m652
277 c15 -69 48 -264 74 -435 25 -170 50 -314 54 -319 20 -20 22 35 12 272 -7
136 -14 329 -18 430 l-7 183 64 -3 64 -3 3 -497 2 -498 -109 0 c-105 0 -109 1
-114 23 -25 102 -71 386 -97 597 -18 140 -34 257 -36 259 -11 12 -34 -11 -30
-31 3 -13 10 -174 16 -358 6 -184 12 -370 14 -412 l3 -78 -64 0 -63 0 0 500 0
501 102 -3 103 -3 27 -125z m718 70 l0 -60 -110 0 -111 0 3 -157 3 -158 103
-3 102 -3 0 -54 0 -54 -102 -3 -103 -3 0 -165 0 -165 108 -3 107 -3 0 -54 0
-55 -175 0 -175 0 0 500 0 500 175 0 175 0 0 -60z m382 49 c64 -14 112 -57
126 -115 16 -59 24 -428 14 -605 -10 -174 -21 -206 -84 -244 -28 -17 -55 -20
-185 -23 l-153 -4 0 501 0 501 115 0 c62 0 138 -5 167 -11z"/>
<path d="M3218 4533 c-19 -22 -30 -53 -19 -53 4 0 18 11 31 25 16 17 20 29 14
35 -7 7 -15 5 -26 -7z"/>
<path d="M2232 4170 c-34 -23 -75 -58 -92 -78 -79 -95 18 -86 107 11 88 95 80
130 -15 67z"/>
<path d="M3965 3637 c-3 -6 -4 -179 -3 -382 l3 -370 59 0 c99 1 96 -12 96 382
l0 334 -25 24 c-19 20 -34 25 -75 25 -31 0 -52 -5 -55 -13z"/>
</g>
</svg>
