<svg xmlns="http://www.w3.org/2000/svg" version="1.1" xmlns:xlink="http://www.w3.org/1999/xlink" xmlns:svgjs="http://svgjs.dev/svgjs" width="1000" height="1000" viewBox="0 0 1000 1000"><rect width="1000" height="1000" fill="#ffffff"></rect><g transform="matrix(0.7,0,0,0.7,149.57575757575756,282.1265587044535)"><svg viewBox="0 0 396 247" data-background-color="#ffffff" preserveAspectRatio="xMidYMid meet" height="623" width="1000" xmlns="http://www.w3.org/2000/svg" xmlns:xlink="http://www.w3.org/1999/xlink"><g id="tight-bounds" transform="matrix(1,0,0,1,0.2400000000000091,-0.09999999999999432)"><svg viewBox="0 0 395.52 247.2" height="247.2" width="395.52"><g><svg></svg></g><g><svg viewBox="0 0 395.52 247.2" height="247.2" width="395.52"><g transform="matrix(1,0,0,1,75.54432,55.559565078888056)"><svg viewBox="0 0 244.43135999999998 136.08086984222388" height="136.08086984222388" width="244.43135999999998"><g><svg viewBox="0 0 244.43135999999998 136.08086984222388" height="136.08086984222388" width="244.43135999999998"><g><svg viewBox="0 0 244.43135999999998 136.08086984222388" height="136.08086984222388" width="244.43135999999998"><g><svg viewBox="0 0 244.43135999999998 136.08086984222388" height="136.08086984222388" width="244.43135999999998"><g><svg viewBox="0 0 244.43135999999998 136.08086984222388" height="136.08086984222388" width="244.43135999999998"><g><svg viewBox="0 0 244.43135999999998 136.08086984222388" height="136.08086984222388" width="244.43135999999998"><g transform="matrix(1,0,0,1,0,0)"><svg width="244.43135999999998" viewBox="0.45000001788139343 -36.54999923706055 66.54000091552734 37.04999923706055" height="136.08086984222388" data-palette-color="#883d1a"><path d="M2.75 0L2.75-22.65 0.45-22.65 0.45-26.3 2.75-26.3 2.75-30.5Q2.75-33.1 3.98-34.83 5.2-36.55 7.95-36.55L7.95-36.55Q9.7-36.55 11.4-35.95L11.4-35.95 11.4-33.1 9.2-33.1Q6.85-33.1 6.85-30.7L6.85-30.7 6.85-26.3 11.4-26.3 11.4-22.65 6.85-22.65 6.85 0 2.75 0ZM14.4 0L14.4-26.3 17.5-26.3 18.05-22.85 18.35-22.85Q18.9-24.6 20-25.75 21.1-26.9 22.8-26.9L22.8-26.9Q23.85-26.9 24.75-26.5L24.75-26.5 24.75-22.25 23.4-22.25Q21.25-22.25 19.87-20.78 18.5-19.3 18.5-16.05L18.5-16.05 18.5 0 14.4 0ZM28.7 0L28.7-26.3 32.8-26.3 32.8 0 28.7 0ZM28.59-31.4L28.59-36.15 32.84-36.15 32.84-31.4 28.59-31.4ZM44.09 0.5Q41.59 0.5 40.49-1.23 39.39-2.95 39.39-5.55L39.39-5.55 39.39-22.65 37.14-22.65 37.14-26.3 39.39-26.3 40.29-33.6 43.49-33.6 43.49-26.3 47.04-26.3 47.04-22.65 43.49-22.65 43.49-5.45Q43.49-3.05 45.84-3.05L45.84-3.05 47.04-3.05 47.04-0.2Q46.49 0.1 45.67 0.3 44.84 0.5 44.09 0.5L44.09 0.5ZM49.14 0L49.14-1.95 60.69-22.65 49.94-22.65 49.94-26.3 66.34-26.3 66.34-24.4 54.74-3.65 66.99-3.65 66.99 0 49.14 0Z" opacity="1" transform="matrix(1,0,0,1,0,0)" fill="#883d1a" class="undefined-text-0" data-fill-palette-color="primary" id="text-0"></path></svg></g></svg></g></svg></g></svg></g></svg></g></svg></g></svg></g><path d="M146.45 49.56L146.45 4.559 384.532 4.559 384.532 242.641 146.45 242.641 146.45 197.64 158.722 197.64 158.722 230.369 372.26 230.369 372.26 16.831 158.722 16.831 158.722 49.56Z" fill="#883d1a" stroke="transparent" data-fill-palette-color="primary"></path></svg></g><defs></defs></svg><rect width="395.52" height="247.2" fill="none" stroke="none" visibility="hidden"></rect></g></svg></g></svg>